<?xml version="1.0" standalone="no"?><!DOCTYPE svg PUBLIC "-//W3C//DTD SVG 1.1//EN" "http://www.w3.org/Graphics/SVG/1.1/DTD/svg11.dtd"><svg t="1763796740145" class="icon" viewBox="0 0 1024 1024" version="1.1" xmlns="http://www.w3.org/2000/svg" p-id="1710" xmlns:xlink="http://www.w3.org/1999/xlink" width="60" height="60"><path d="M707.12176 694.905542c1.304351 0.304913 7.758346 6.979123 14.830637 3.709776-3.404864 12.382862-15.110141 20.522349-21.657304 32.100579-40.426402 71.476725 18.108453 153.049462 94.040298 160.613003 23.944152 2.388486 66.132275 2.574822 81.394872-18.548883 9.740281-13.483937 12.442151-20.598577 26.053135-33.269413 3.11689-2.905145 9.672523-12.831762 12.975748-3.709777-125.615749 170.05684-412.217171 145.189479-580.9866 56.341175-10.595732-5.581605-36.352423-19.345045-43.899024-26.544384-10.079074-9.604764-31.804136-65.573267-37.097767-81.555798-6.750438-20.412242-8.927179-39.291447-12.831762-59.475004l-0.40655-8.808603-3.303226-2.312258c-0.177866-1.211183 0.177866-2.498594 0-3.709776 18.997783 1.422928 29.534227 5.33598 48.328734-1.727842 36.242316-13.610984 56.612208-55.028354 51.716659-92.761356-1.202713-9.282911-13.314541-23.706998-3.650488-31.575451 38.537634 26.442746 69.740414 34.319669 114.994607 16.744814 7.55507-2.939024 14.576543-8.300414 22.131613-11.239437 45.40665-17.634144 94.616245-11.264847 133.374094 18.752158 45.643805 35.344516 32.9645 70.257072 103.975385 86.976477z m-170.378693-3.531911c33.286352 2.837386 82.546766-18.091514 58.670372-57.171216-15.940182-26.095484-88.551861-43.797386-110.895219-19.158709-14.424086 15.914773-4.429711 37.936278 7.487312 52.114739 4.89555 5.827229 21.199934 16.168867 21.979156 18.794508 8.986468 30.304979-46.812639 44.110769-61.999007 13.81426-4.734624-9.443838-4.743093-20.46306-4.488999-30.770819l-9.206684-3.387924c-16.524599 11.324136-9.977436 37.326452 0.118578 51.445624 18.574293 25.985376 54.003507 26.900116 79.599272 11.205559 7.876923 23.690058 39.901274 38.139553 64.294326 32.769694 14.102233-3.09995 40.451811-25.39249 35.674838-41.86627-15.279537-17.38005-20.344483 9.096576-31.880364 15.999471-27.272787 16.312854-63.947064-14.161522-49.353581-43.797387z" fill="#F9EFDB" p-id="1711"></path><path d="M944.41195 780.179586c-0.43196 13.36536-15.999471 40.104549-24.189776 51.979223-1.78713 2.591762-5.031067 3.040662-5.471497 3.633548-3.303226-9.121985-9.850389 0.813102-12.975749 3.709777-13.619454 12.670835-16.312854 19.785476-26.053135 33.269413-15.254127 21.123706-57.44225 20.93737-81.394872 18.548883-75.931844-7.56354-134.4667-89.144748-94.040297-160.613002 6.555633-11.5867 18.25244-19.717717 21.657303-32.100579h37.072358c0.87239 9.393019-9.952026 13.839669-14.889926 20.327543-18.337138 24.03732-26.061605 47.109082-22.114673 77.871431 2.922084 22.826137 30.059355 52.377304 51.665839 59.568172 22.26713 7.411084 61.499289 9.511596 81.665906-3.980811 8.90177-5.945806 36.335484-35.556261 40.155368-45.118676 13.195964-32.972969-1.651613-80.691878-30.652242-101.400563l-5.708651-14.67818c23.961092 4.040099 43.212969 7.12311 61.287543 25.84139 13.585575 14.068354 24.604797 43.882084 23.994971 63.142431z" fill="#F9E6D1" p-id="1712"></path><path d="M332.637591 583.67153c-9.672523 7.876923 2.439305 22.292539 3.650488 31.575451 4.89555 37.733002-15.474342 79.150372-51.716658 92.761356-18.794508 7.063821-29.330951 3.142299-48.328734 1.727842-2.312258-15.736907-1.846419-30.304979-3.709777-44.491911 2.718809-8.402051 11.180149-0.254094 16.067229-0.660645 22.055385-1.804069 42.526915-27.636989 39.554012-49.395931-0.711464-5.200463-8.4444-20.615517-11.645989-25.443308-11.57823-17.439338-41.264913-23.393615-58.712721-11.535881l-22.343358 20.293664c-4.675335-4.00622-24.460811-16.397552-29.661274-18.540413 9.003408-6.318478 12.789413-17.202184 22.343358-24.003441 16.03335-11.425773 31.829545-12.145707 49.107957-17.668024 6.267659-2.007345 12.077949-1.516096 10.121423-10.23153 34.395897 13.416179 56.315765 35.742597 85.274044 55.612771z" fill="#F9D1B4" p-id="1713"></path><path d="M232.52444 665.244268c-0.033879-0.254094-2.6934-0.838511-3.040662-2.634111-4.836261-25.096046-13.82273-46.778759-34.031695-64.09952l22.343358-20.293664c17.447808-11.857734 47.134491-5.903457 58.712721 11.535881 3.201588 4.819322 10.934524 20.234376 11.645989 25.443308 2.972903 21.758941-17.498627 47.591861-39.554012 49.395931-4.88708 0.398081-13.34842-7.741406-16.067229 0.660645z" fill="#FAB998" p-id="1714"></path><path d="M247.355077 528.058759c1.956526 8.715434-3.845294 8.224185-10.121423 10.23153-17.278412 5.530786-33.083077 6.25072-49.107957 17.668024-9.553945 6.809727-13.331481 17.684963-22.343358 24.003441-11.341075-4.666865-28.560199-7.377204-40.799073-7.411084 0.228685-4.89555-0.338792-9.952026 0.008469-14.830637 10.426336-5.35292 16.863391-17.447808 26.044665-24.003441 31.931183-22.792258 61.838081-19.099421 96.310207-5.657833z" fill="#F7E5CF" p-id="1715"></path><path d="M239.943993 724.566816c-0.118577-0.626766-2.625641-3.769065-3.709776-11.120861l3.303226 2.312258 0.40655 8.808603z" fill="#F9D1B4" p-id="1716"></path><path d="M859.137906 691.195765l5.708651 14.67818c29.000629 20.708685 43.848205 68.427593 30.652242 101.400563-3.828354 9.562415-31.262068 39.17287-40.155368 45.118676-20.175087 13.483937-59.398776 11.391894-81.665906 3.980811-21.606485-7.190868-48.735285-36.742035-51.665839-59.568172-3.938462-30.753879 3.777535-53.834111 22.114673-77.871431 4.946369-6.479404 15.762316-10.934524 14.889926-20.319074h-37.072358c-7.072291 3.269347-13.526286-3.404864-14.830637-3.709776 18.955434-0.855451 38.469876 1.228122 57.391431-0.076229 37.470438-2.583292 54.816609-10.341638 94.624715-3.633548z m-56.866303 30.2711c-12.840232 2.811977-35.242878 22.563573-38.867957 35.293697-5.33598 18.760629-3.811414 34.201092 7.267097 50.708751 14.737469 21.979156 53.334392 22.648271 73.534888 7.834575 23.215749-17.024318 24.858892-52.08086 7.58895-74.127776-12.399801-15.830074-29.449529-24.113548-49.514508-19.717717z" fill="#F9D2B5" p-id="1717"></path><path d="M284.435904 898.833151c-0.796162-0.313383-9.130455-11.197089-10.621141-13.483937-25.155335-38.622333-53.097237-117.010422-59.830737-160.773929-2.608701-16.93962-1.380579-39.045823-4.41277-56.764665-16.084169-93.972539-153.955732-97.639967-183.01565-10.163771-14.940744 44.96622 8.927179 84.122151 27.992722 122.541207 13.882018 27.967312 27.975782 56.375054 45.059387 82.860149 12.569198 19.489032 30.457436 38.698561 41.840861 58.263821 3.404864 5.852639 7.072291 11.002283 5.79335 18.320199-3.12536 1.439868-5.488437 15.804665-18.625112 1.939586C83.616715 875.964665 21.93956 796.721125 3.416086 718.248337c-13.009628-55.121522 11.603639-115.214822 65.91206-136.465574 7.817634-3.057601 27.772506-5.36139 29.398709-11.383425 4.988718-57.44225 30.601423-113.444632 60.203408-162.256145 18.887676-31.14349 46.456907-57.916559 55.883805-92.431034 19.810885-72.55239 57.831861-213.532374 117.97598-260.217965C344.25817 46.592423 363.840371 37.267163 378.162819 39.299917c19.268817 2.727279 35.107361 12.848701 50.700281 23.61383 40.917651 31.541572 70.917717 72.230538 102.535517 112.512953 47.17684 5.471497 93.760794 10.68043 139.582465 23.563011 36.818263 10.350108 74.051547 26.053135 108.422035 42.71325 38.249661-18.099983 81.589677-37.758412 123.210322-46.465376 56.256476-11.764566 98.741042-8.537568 115.155534 53.690124 14.297039 54.215252 1.084136 153.921853-11.197089 209.70402-7.919272 35.962812-23.859454 67.063954-21.318511 104.59368 3.531911 52.08933 10.782068 94.573896 3.55732 148.306369-40.832953 303.61727-405.14488 317.44847-630.306303 218.902234-19.59914-8.579917-39.672589-22.292539-59.102332-29.898429-5.827229-2.286849-12.492969-0.694524-14.991563-1.677022zM125.000205 557.720033c-0.347262 4.88708 0.220215 9.935087-0.00847 14.830637 12.230405 0.033879 29.449529 2.744218 40.799074 7.411084 5.200463 2.134392 24.985939 14.534194 29.661274 18.540413 20.208966 17.320761 29.195434 39.011944 34.031695 64.09952 0.347262 1.804069 3.006782 2.388486 3.040662 2.634111 1.854888 14.186931 1.389049 28.755004 3.709777 44.491911 0.177866 1.211183-0.177866 2.498594 0 3.709777 1.084136 7.351795 3.58273 10.494094 3.709776 11.12086 3.904582 20.183557 6.072854 39.054293 12.831762 59.475004 5.285161 15.982531 27.018693 71.951034 37.097767 81.555798 7.5466 7.199338 33.303292 20.962779 43.899024 26.544384 168.769429 88.856774 455.370852 113.715666 580.9866-56.341175 0.44043-0.592887 3.684367-1.050256 5.471498-3.633548 8.190306-11.874673 23.757816-38.613863 24.189776-51.979223 7.351795-8.308883 11.332605-25.282382 13.932837-36.123738 14.127643-58.992225 7.538131-117.55249 4.44665-176.908917-2.65105-50.75957 16.880331-89.195567 25.985377-137.481952 9.037287-47.922184 18.455715-126.513548 6.843606-173.419355-13.848139-55.926154-50.76804-47.109082-96.648999-35.031133-40.477221 10.655021-81.979289 28.212936-119.551365 46.423028-36.648867-18.625112-76.092771-35.505443-115.841588-46.423028-47.303888-12.984218-94.929628-18.26938-143.182134-23.664648-11.917022-6.979123-16.363672-20.844202-24.545509-31.067262-23.088701-28.848172-54.071266-65.158246-83.436096-87.120464-21.504847-16.084169-40.756725-22.597452-64.853333-5.395268-36.445591 26.010786-77.44794 135.296741-91.041985 179.619255-8.02091 26.137833-12.620017 62.015947-21.987626 85.536609-7.919272 19.870174-36.657337 51.945343-49.633085 72.721787-24.325294 38.927246-56.637618 100.104682-59.890025 145.884003z" fill="#502D23" p-id="1718"></path><path d="M944.41195 780.179586c0.618296-19.260347-10.409396-49.065608-23.994971-63.142431-18.074574-18.726749-37.317982-21.80976-61.287543-25.84139-39.808106-6.708089-57.154276 1.050256-94.624715 3.633548-18.921555 1.304351-38.435997-0.779222-57.391431 0.076229-71.010885-16.710935-58.33158-51.62349-103.975384-86.976477-38.757849-30.017006-87.975914-36.386303-133.374095-18.752158-7.55507 2.939024-14.576543 8.300414-22.131612 11.239437-45.254194 17.574855-76.456973 9.706402-114.994608-16.744814-28.966749-19.878644-50.886617-42.205062-85.274044-55.612771-34.463656-13.441588-64.379024-17.142895-96.310207 5.657833-9.189744 6.555633-15.626799 18.658991-26.044665 24.003441 3.252407-45.787792 35.564731-106.965227 59.890025-145.884003 12.984218-20.767974 41.722283-52.851613 49.633085-72.721787 9.376079-23.520662 13.975186-59.398776 21.987626-85.536609 13.594045-44.330984 54.596394-153.60847 91.041985-179.619255 24.096609-17.202184 43.356956-10.6889 64.853334 5.395269 29.356361 21.962217 60.338925 58.272291 83.436095 87.120463 8.181836 10.22306 12.628486 24.088139 24.545509 31.067262 48.252506 5.395269 95.878246 10.68043 143.182134 23.664649 39.748817 10.909115 79.184251 27.797916 115.841588 46.423027 37.572076-18.201621 79.074144-35.759537 119.551365-46.423027 45.87249-12.077949 82.80086-20.895021 96.648999 35.031133 11.612109 46.905806 2.193681 125.497171-6.843606 173.419355-9.105045 48.286385-28.627957 86.722382-25.985376 137.481952 3.09995 59.356427 9.680993 117.916691-4.446651 176.908916-2.591762 10.841356-6.581042 27.814855-13.932837 36.123739zM306.686094 268.501439c14.568073 1.219653 24.299884-11.59517 35.801886-17.947527 31.566981-17.430868 60.372804-24.325294 92.303987-37.470438 11.57823-4.768503 11.103921-6.360827 5.437618-16.93962-8.080199-15.084731-38.114144-66.403309-53.732473-68.613928-6.640331-0.940149-14.983093 0.211745-21.869049 0.550537-38.893366 35.700248-44.432622 91.931315-57.941969 140.420976z m626.596526 159.444169c12.535318-41.696873 24.511629-91.516294 18.540414-135.33062-0.846981-6.191431-7.461902-18.218561-13.433118-19.937933-31.753317-5.386799-59.67828 12.45909-84.842085 29.170025l-12.941869 13.001158c7.902333 9.045757 18.303259 16.888801 26.019256 25.892209 22.749909 26.569793 34.683871 52.724566 53.766352 79.709379 3.066071 4.336543 6.979123 8.613797 12.89105 7.495782z m-490.681488-73.543358c-39.554012 8.91871-32.896741 58.76354-8.063259 81.0222 35.810356 32.100579 91.440066 21.445558 79.175781-34.675401-5.403739-24.731844-46.262101-51.945343-71.104053-46.346799z m274.506534 74.263292c-31.16043 5.403739-62.295451 37.699123-39.723408 67.953283 14.432556 19.353515 38.148023 19.675368 60.5422 15.889364 27.044103-4.565227 53.698594-35.759537 37.766882-62.286981-10.934524-18.218561-38.647742-25.011348-58.577204-21.555666z m-381.827494 44.568139c-17.413929 2.439305-37.233284 10.595732-36.166088 30.796228 1.524566 28.746534 36.352423 6.885955 53.757883 5.33598 36.369363-3.235467 67.546733 12.46756 91.067394 39.011944 4.090918 4.616046 11.984781 22.961654 20.420712 9.443838 13.924367-22.317949-27.17115-60.313515-45.135616-70.011448-25.104516-13.551696-55.621241-18.557353-83.952755-14.576542z m348.456443 92.617369c-12.382862 2.092043-40.926121 16.770223-39.799636 30.813168 1.558445 19.472093 31.18584-0.279504 42.848768-1.804069 28.687246-3.760596 57.086518 6.725029 79.497634 24.198246 9.604764 7.487312 24.782663 32.617237 34.802449 30.940215l11.891613-6.809727c7.927742-22.436526-5.962746-38.901836-22.368768-52.165558-28.898991-23.359735-70.485757-31.312887-106.87206-25.172275z" fill="#F7C27E" p-id="1719"></path><path d="M306.686094 268.501439c13.500877-48.489661 19.048602-104.720728 57.941969-140.420976 6.885955-0.347262 15.228718-1.490687 21.869049-0.550537 15.626799 2.21909 45.652275 53.529198 53.732473 68.613928 5.666303 10.578792 6.140612 12.171117-5.437618 16.93962-31.931183 13.145145-60.728536 20.0311-92.303987 37.470438-11.502002 6.352357-21.233813 19.167179-35.801886 17.947527z" fill="#F8C6B6" p-id="1720"></path><path d="M933.28262 427.945608c-5.911927 1.118015-9.824979-3.150769-12.89105-7.495782-19.090951-26.984814-31.016443-53.139586-53.766352-79.709379-7.707527-9.003408-18.108453-16.854921-26.019256-25.892209l12.941869-13.001158c25.163805-16.710935 53.088768-34.556824 84.842085-29.170025 5.979686 1.719371 12.594607 13.746501 13.433118 19.937933 5.962746 43.814326-6.005095 93.633747-18.540414 135.33062z" fill="#F8C7B7" p-id="1721"></path><path d="M442.601132 354.40225c24.850422-5.598544 65.700314 21.606485 71.104052 46.346799 12.264285 56.120959-43.356956 66.77598-79.175781 34.675401-24.833482-22.25866-31.490753-72.10349 8.063259-81.0222z" fill="#F7EEDB" p-id="1722"></path><path d="M717.107666 428.665542c19.929462-3.455682 47.64268 3.345575 58.577204 21.555666 15.931712 26.527444-10.722779 57.721754-37.766882 62.286981-22.394177 3.777535-46.101175 3.455682-60.5422-15.889364-22.572043-30.25416 8.571447-62.549545 39.723408-67.953283z" fill="#F7EDDB" p-id="1723"></path><path d="M335.280172 473.233681c28.331514-3.972341 58.848238 1.024847 83.952754 14.576542 17.955997 9.697932 59.051514 47.693499 45.135617 70.011448-8.435931 13.517816-16.329793-4.827792-20.420712-9.443838-23.520662-26.544384-54.698031-42.247411-91.067394-39.011944-17.405459 1.549975-52.233317 23.410554-53.757883-5.33598-1.067196-20.200496 18.752159-28.356923 36.166088-30.796228z" fill="#553227" p-id="1724"></path><path d="M683.736615 565.85105c36.386303-6.140612 77.973069 1.804069 106.87206 25.172275 16.406022 13.263722 30.29651 29.729032 22.368768 52.165558l-11.891613 6.809727c-10.019785 1.677022-25.206154-23.452903-34.802449-30.940215-22.411117-17.473218-50.810389-27.958842-79.497634-24.198246-11.662928 1.533036-41.290323 21.276162-42.848768 1.804069-1.126485-14.042945 27.408304-28.721125 39.799636-30.813168z" fill="#553228" p-id="1725"></path><path d="M536.743067 691.373631c-14.585012 29.635864 22.080794 60.10177 49.353581 43.797386 11.535881-6.902895 16.600827-33.37952 31.880364-15.99947 4.776973 16.47378-21.581075 38.757849-35.674838 41.866269-24.393052 5.369859-56.417403-9.088106-64.294326-32.769694-25.595765 15.694557-61.024979 14.771348-79.599272-11.205558-10.096013-14.119173-16.643176-40.113019-0.118578-51.445624l9.206684 3.387924c-0.254094 10.307758-0.237155 21.326981 4.488999 30.770818 15.186369 30.29651 70.985476 16.49072 61.999007-13.814259-0.779222-2.625641-17.083606-12.967279-21.979156-18.794508-11.917022-14.178462-21.919868-36.199967-7.487312-52.11474 22.343358-24.638677 94.955037-6.936774 110.895219 19.15871 23.876394 39.079702-25.38402 60.008602-58.670372 57.171216z" fill="#553229" p-id="1726"></path><path d="M284.435904 898.833151c-37.589016 28.407742-67.123242 48.5066-116.722448 44.424153-5.437618-0.4489-14.474905-6.403176-20.463061-3.633549 1.287411-7.317916-2.380017-12.45909-5.79335-18.320198-11.383424-19.565261-29.271663-38.774789-41.84086-58.263822-17.083606-26.485095-31.18584-54.884367-45.059388-82.860149 54.75732 21.072887 112.792457 9.062696 150.008801-37.233283 3.701307-4.599107 9.045757-12.306634 9.426898-18.379487 6.733499 43.763507 34.675401 122.160066 59.830736 160.773928 1.490687 2.286849 9.81651 13.170554 10.621142 13.483938z" fill="#F6C27D" p-id="1727"></path><path d="M213.992496 724.566816c-0.381141 6.072854-5.734061 13.78038-9.426898 18.379487-37.216344 46.29598-95.251481 58.31464-150.008801 37.233283-19.065542-38.419057-42.933466-77.574988-27.992721-122.541207 29.059917-87.476195 166.931481-83.808768 183.015649 10.163772 3.032192 17.710372 1.812539 39.825045 4.412771 56.764665zM101.462604 617.449132l-19.192589 14.339387c-8.774723 18.786038 10.341638 49.963408 31.702498 39.113582 20.886551-10.612672 12.120298-50.920496-12.518379-53.452969z m78.616774 54.672622c13.534756-13.526286 0.482779-55.502663-25.519537-42.205063-15.15249 14.034475-16.533069 35.065012 2.388487 46.008007 5.234342 1.566915 19.700778-0.381141 23.13952-3.811414zM76.26492 709.194111c13.771911-25.655054-9.282911-53.613896-35.996692-39.706468-9.824979 17.82048-1.77019 36.996129 16.092639 44.102299l19.904053-4.404301z m40.05373-24.825013c-17.227593 3.735186-40.324764 47.024384-35.336046 63.845426 4.175616 14.110703 25.468718 15.660678 37.876989 12.848702 4.082448-0.923209 7.775285-4.87861 12.46756-6.072854 16.981969-4.302663 44.796824-7.207808 48.879272-29.220843 4.048569-21.83517-45.542167-45.381241-63.887775-41.4089z" fill="#F5ECD9" p-id="1728"></path><path d="M116.31865 684.369098c18.345608-3.980811 67.927874 19.57373 63.887775 41.4089-4.073978 22.004566-31.897304 24.91818-48.879272 29.220844-4.692275 1.185773-8.385112 5.141175-12.46756 6.072854-12.408271 2.811977-33.692903 1.262002-37.876989-12.848702-4.988718-16.829512 18.108453-60.11024 35.336046-63.845426z" fill="#543129" p-id="1729"></path><path d="M101.462604 617.449132c24.638677 2.532473 33.39646 42.840298 12.518379 53.452969-21.36933 10.849826-40.477221-20.327543-31.702498-39.113582L101.471074 617.449132z" fill="#5A372C" p-id="1730"></path><path d="M76.26492 709.194111l-19.904053 4.404301c-17.862829-7.10617-25.917618-26.28182-16.092639-44.1023 26.71378-13.907428 49.768602 14.051414 35.996692 39.706469z" fill="#593329" p-id="1731"></path><path d="M180.079378 672.121754c-3.430273 3.430273-17.896708 5.378329-23.13952 3.811414-18.921555-10.942994-17.540976-31.982002-2.388487-46.008007 26.010786-13.297601 39.054293 28.678776 25.519537 42.205062z" fill="#5A352A" p-id="1732"></path><path d="M802.271603 721.466865c20.073449-4.395831 37.123176 3.887643 49.514508 19.717717 17.269942 22.038445 15.626799 57.094988-7.58895 74.127775-20.200496 14.813697-58.78895 14.144582-73.534888-7.834574-11.070041-16.516129-12.594607-31.956592-7.267097-50.708751 3.616609-12.730124 26.027725-32.48172 38.867957-35.293697z" fill="#F9BD9A" p-id="1733"></path></svg>